# xmcd
# 
# Track frame offsets:
#     150
#     21061
#     39267
# 
# Disc length: 797
# 
# Revision: 1
# Processed by: cddbd v1.5.2PL0 Copyright (c) Steve Scherf et al.
# Submitted via: fre:ac v1.0.17
# 
DISCID=16031b03
DTITLE=森山直太朗 - 生きてることが辛いなら
DYEAR=2008
DGENRE=J-POP
TTITLE0=生きてることが辛いなら
TTITLE1=生きてることが辛いなら（弾き語り）
TTITLE2=生きてることが辛いなら (instrumental)
EXTD=YEAR: 2008
EXTT0=
EXTT1=
EXTT2=
PLAYORDER=
